# xmcd
#
# Track frame offsets: 
#        150
#        10411
#        21716
#        32803
#        44703
#        56346
#        68991
#        79336
#        91095
#        102748
#        115452
#        125783
#        137001
#        148151
#        157966
#        169271
#        180403
#
# Disc length: 2548 seconds
#
# Revision: 2
# Processed by: cddbd v1.5.2PL0 Copyright (c) Steve Scherf et al.
# Submitted via: ExactAudioCopy v1.1
#
DISCID=fc09f211
DTITLE=Patsy Cline - The Very Best Of Patsy Cline [CD1)
DYEAR=1999
DGENRE=Country
TTITLE0=Three Cigarettes In An Ashtray
TTITLE1=Just Out Of Reach
TTITLE2=Stop The World (And Let Me Off)
TTITLE3=Today, Tomorrow And Forever
TTITLE4=Let The Teardrops Fall
TTITLE5=Fingerprints
TTITLE6=How Can I Face Tomorrow
TTITLE7=A Poor Man's Roses
TTITLE8=Never No More
TTITLE9=Yes, I Understand
TTITLE10=Walking Dream
TTITLE11=Hidin' Out
TTITLE12=A Stranger In My Arms
TTITLE13=I'm Blue Again
TTITLE14=Cry Not For Me
TTITLE15=I Can't Forget
TTITLE16=I Can See An Angel
EXTD=
EXTT0=
EXTT1=
EXTT2=
EXTT3=
EXTT4=
EXTT5=
EXTT6=
EXTT7=
EXTT8=
EXTT9=
EXTT10=
EXTT11=
EXTT12=
EXTT13=
EXTT14=
EXTT15=
EXTT16=
PLAYORDER=
